<?xml version="1.0" encoding="iso-8859-1"?>
<!-- Generator: Adobe Illustrator 19.0.0, SVG Export Plug-In . SVG Version: 6.00 Build 0)  -->
<svg xmlns="http://www.w3.org/2000/svg" xmlns:xlink="http://www.w3.org/1999/xlink" version="1.1" id="Capa_1" x="0px" y="0px" viewBox="0 0 512 512" style="enable-background:new 0 0 512 512;" xml:space="preserve" width="512px" height="512px">
<g>
	<g>
		<g>
			<path d="M278.553,146.649v11.624c0,4.142,3.357,7.5,7.5,7.5s7.5-3.358,7.5-7.5v-11.624c0-4.142-3.357-7.5-7.5-7.5     S278.553,142.507,278.553,146.649z" fill="#b9f4f4"/>
			<path d="M486.516,83.444c-2.268-3.468-6.914-4.441-10.381-2.177c-3.468,2.265-4.442,6.913-2.178,10.381     C489.032,114.723,497,141.556,497,169.247c0,78.343-63.736,142.079-142.079,142.079S212.842,247.59,212.842,169.247     S276.578,27.168,354.921,27.168c32.928,0,65.023,11.521,90.373,32.441c3.193,2.636,7.922,2.185,10.558-1.011     c2.637-3.195,2.185-7.922-1.011-10.558c-28.03-23.132-63.516-35.872-99.92-35.872c-86.613,0-157.079,70.465-157.079,157.079     c0,62.973,37.255,117.4,90.876,142.425c-0.829,6.229-2.524,12.169-4.962,17.706c-0.098,0.195-0.187,0.397-0.268,0.603     c-10.348,22.871-33.367,38.66-59.888,38.66H65.596C29.426,368.641,0,398.068,0,434.237s29.426,65.595,65.596,65.595h26.957     c4.143,0,7.5-3.358,7.5-7.5c0-4.142-3.357-7.5-7.5-7.5h-2.691V383.641h72.363v101.191h-22.05c-4.143,0-7.5,3.358-7.5,7.5     c0,4.142,3.357,7.5,7.5,7.5H223.6c51.752,0,100.661-19.994,137.721-56.299c35.864-35.135,56.697-81.665,58.979-131.476     c54.064-24.849,91.7-79.514,91.7-142.81C512,138.635,503.188,108.965,486.516,83.444z M74.862,484.832L74.862,484.832h-9.267     C37.697,484.832,15,462.136,15,434.237c0-27.898,22.697-50.596,50.596-50.596h9.266V484.832z M223.6,484.832h-46.375V383.641     h43.899c22.688,20.391,48.419,56.874,55.67,93.277C259.753,482.125,241.869,484.832,223.6,484.832z M350.823,432.819     c-17.442,17.087-37.728,30.253-59.749,39.068c-7.365-34.188-28.561-67.376-50.338-90.096c22.941-4.973,42.334-19.71,53.466-39.76     c14.909,5.694,30.507,14.34,43.637,24.264c16.528,12.492,28.536,26.456,34.978,40.594     C366.366,416.099,359.025,424.784,350.823,432.819z M382.052,392.264c-17.274-29.178-51.767-52.367-81.824-63.984     c1.156-3.495,2.078-7.097,2.751-10.791c16.267,5.716,33.746,8.837,51.942,8.837c17.452,0,34.246-2.865,49.942-8.142     C402.676,344.48,394.867,369.648,382.052,392.264z" fill="#b9f4f4"/>
			<path d="M340.656,140.047c-7.089,0-12.855,5.767-12.855,12.856v14.265c0,14.955,12.166,27.121,27.12,27.121     c14.955,0,27.121-12.166,27.121-27.121v-14.265c0-7.089-5.768-12.856-12.857-12.856H340.656z M367.042,167.167     c0,6.684-5.438,12.121-12.121,12.121c-6.683,0-12.12-5.438-12.12-12.121v-12.121h24.241V167.167z" fill="#b9f4f4"/>
			<path d="M416.29,146.649v11.624c0,4.142,3.357,7.5,7.5,7.5s7.5-3.358,7.5-7.5v-11.624c0-4.142-3.357-7.5-7.5-7.5     S416.29,142.507,416.29,146.649z" fill="#b9f4f4"/>
		</g>
	</g>
</g>
<g>
</g>
<g>
</g>
<g>
</g>
<g>
</g>
<g>
</g>
<g>
</g>
<g>
</g>
<g>
</g>
<g>
</g>
<g>
</g>
<g>
</g>
<g>
</g>
<g>
</g>
<g>
</g>
<g>
</g>
</svg>
